<svg id="Layer_1" data-name="Layer 1" xmlns="http://www.w3.org/2000/svg" xmlns:xlink="http://www.w3.org/1999/xlink" viewBox="0 0 262 256"><defs><style>.cls-1{fill:#4f256b;}.cls-2{fill:url(#Degradado_sin_nombre_93);}.cls-3{fill:url(#Degradado_sin_nombre_93-2);}.cls-4{fill:url(#Degradado_sin_nombre_93-3);}</style><linearGradient id="Degradado_sin_nombre_93" x1="1.25" y1="-1.25" x2="260.75" y2="258.25" gradientUnits="userSpaceOnUse"><stop offset="0" stop-color="#539ad3"/><stop offset="0.01" stop-color="#b786bc"/><stop offset="1" stop-color="#632369"/></linearGradient><linearGradient id="Degradado_sin_nombre_93-2" x1="32.77" y1="122.97" x2="145.45" y2="122.97" xlink:href="#Degradado_sin_nombre_93"/><linearGradient id="Degradado_sin_nombre_93-3" x1="150.63" y1="141.59" x2="228.59" y2="141.59" xlink:href="#Degradado_sin_nombre_93"/></defs><rect class="cls-1" x="24" y="24" width="214" height="209"/><path class="cls-2" d="M238,24V233H24V24H238M262,0H0V257H262V0Z"/><path class="cls-3" d="M32.77,178.7,75.18,67.24h27.25l43,111.46h-27.1L109.29,155H66.12L58.35,178.7Zm71-42.4-12.49-36q-.52-1.61-1.37-5.49t-1.75-9.51c-.66,3.6-1.29,6.84-1.9,9.7s-1.07,4.79-1.37,5.75l-12,35.56Z"/><path class="cls-4" d="M228.21,146.73H172.1q1.29,8.07,5.86,12.06t12.41,4a21.59,21.59,0,0,0,10.24-2.28,19,19,0,0,0,7.19-6.93l17.51,8.75a40.27,40.27,0,0,1-14.77,14.58q-8.67,4.76-20.63,4.76-18.12,0-28.7-10.81t-10.58-29.08q0-17.59,11.07-28.93t28.36-11.35q17.82,0,28.17,10.62t10.36,29c0,.66,0,1.39-.08,2.17S228.36,145.2,228.21,146.73Zm-21.47-13.1q-.92-7.08-5.14-10.7t-11.54-3.61q-7.31,0-11.68,3.61t-5.6,10.7Z"/></svg>