<svg id="Layer_1" data-name="Layer 1" xmlns="http://www.w3.org/2000/svg" xmlns:xlink="http://www.w3.org/1999/xlink" viewBox="0 0 262 256"><defs><style>.cls-1{fill:#143e68;}.cls-2{fill:url(#Degradado_sin_nombre_27);}.cls-3{fill:url(#Degradado_sin_nombre_27-2);}.cls-4{fill:url(#Degradado_sin_nombre_27-3);}</style><linearGradient id="Degradado_sin_nombre_27" x1="1.25" y1="-1.25" x2="260.75" y2="258.25" gradientUnits="userSpaceOnUse"><stop offset="0" stop-color="#539ad3"/><stop offset="0.01" stop-color="#00a7d4"/><stop offset="1" stop-color="#3f55a5"/></linearGradient><linearGradient id="Degradado_sin_nombre_27-2" x1="40.93" y1="120.95" x2="132.98" y2="120.95" xlink:href="#Degradado_sin_nombre_27"/><linearGradient id="Degradado_sin_nombre_27-3" x1="142.45" y1="145.14" x2="224.33" y2="145.14" xlink:href="#Degradado_sin_nombre_27"/></defs><rect class="cls-1" x="24" y="24" width="214" height="209"/><path class="cls-2" d="M238,24V233H24V24H238M262,0H0V257H262V0Z"/><path class="cls-3" d="M40.93,194V48h35.9q28.73,0,42.44,11T133,92.83q0,21.24-13.81,33.31T80.92,138.21H72.34V194Zm31.41-80.08h4.49q12.77,0,18.55-5.28t5.79-17q0-10.77-5.79-15.71T76.83,71H72.34Z"/><path class="cls-4" d="M142.45,176.8l21.84-11.27a13.67,13.67,0,0,0,5.89,9,20.47,20.47,0,0,0,11.87,3.29q7,0,11-2.55a7.92,7.92,0,0,0,4-7q0-7.08-14.16-11.86-4.38-1.5-7-2.5Q158.61,147.38,152,140.8a22,22,0,0,1-6.63-16.26,28.14,28.14,0,0,1,11.27-23.23q11.26-8.88,29.71-8.88,13.17,0,22.79,5.29a31.6,31.6,0,0,1,14,15l-20.84,10.38a15,15,0,0,0-5.88-8.33,18.23,18.23,0,0,0-10.47-2.84q-6.28,0-10.18,2.59a7.85,7.85,0,0,0-3.89,6.78q0,7.29,19.35,13.56c1.53.47,2.69.84,3.49,1.1q16.06,5.29,22.84,12.32t6.78,17.9q0,14.56-11.27,23.14t-30.42,8.57q-15.15,0-25.88-5.63T142.45,176.8Z"/></svg>